<svg width="43" height="43" viewBox="0 0 43 43" fill="none" xmlns="http://www.w3.org/2000/svg">
<g id="add-button-svgrepo-com 1" clip-path="url(#clip0_10_71)">
<g id="SVGRepo_iconCarrier">
<g id="Group">
<g id="Group_2">
<path id="Vector" d="M21.5 0.923828C10.1537 0.923828 0.923828 10.1537 0.923828 21.5C0.923828 32.8463 10.1537 42.0762 21.5 42.0762C32.8463 42.0762 42.0762 32.8463 42.0762 21.5C42.0762 10.1537 32.8463 0.923828 21.5 0.923828ZM21.5 38.6496C12.0434 38.6496 4.35039 30.9566 4.35039 21.5C4.35039 12.0434 12.0434 4.35039 21.5 4.35039C30.9566 4.35039 38.6496 12.0434 38.6496 21.5C38.6496 30.9566 30.9566 38.6496 21.5 38.6496Z" fill="#4E56CA"/>
<path id="Vector_2" d="M30.0328 19.7867H23.2133V12.9672C23.2133 12.0182 22.449 11.2539 21.5 11.2539C20.551 11.2539 19.7867 12.0182 19.7867 12.9672V19.7867H12.9672C12.0182 19.7867 11.2539 20.551 11.2539 21.5C11.2539 22.449 12.0182 23.2133 12.9672 23.2133H19.7867V30.0328C19.7867 30.9818 20.551 31.7461 21.5 31.7461C22.449 31.7461 23.2133 30.9818 23.2133 30.0328V23.2133H30.0328C30.9818 23.2133 31.7461 22.449 31.7461 21.5C31.7461 20.551 30.9818 19.7867 30.0328 19.7867Z" fill="#4E56CA"/>
</g>
</g>
</g>
</g>
<defs>
<clipPath id="clip0_10_71">
<rect width="43" height="43" fill="white"/>
</clipPath>
</defs>
</svg>
