<svg width="43" height="30" viewBox="0 0 43 30" fill="none" xmlns="http://www.w3.org/2000/svg">
<g id="delete-left-svgrepo-com 1" clip-path="url(#clip0_10_85)">
<g id="SVGRepo_iconCarrier">
<path id="Vector" d="M33.71 10.227L28.5272 15L33.71 19.773C34.387 20.3965 34.387 21.4285 33.71 22.052C33.3598 22.3745 32.9162 22.525 32.4726 22.525C32.0291 22.525 31.5855 22.3745 31.2353 22.052L26.0525 17.279L20.8697 22.052C20.5195 22.3745 20.0759 22.525 19.6324 22.525C19.1888 22.525 18.7452 22.3745 18.395 22.052C17.718 21.4285 17.718 20.3965 18.395 19.773L23.5778 15L18.395 10.227C17.718 9.6035 17.718 8.5715 18.395 7.948C19.0721 7.3245 20.1927 7.3245 20.8697 7.948L26.0525 12.721L31.2353 7.948C31.9123 7.3245 33.0329 7.3245 33.71 7.948C34.387 8.5715 34.387 9.6035 33.71 10.227ZM43.2585 4.25V25.75C43.2585 27.814 41.4375 29.5125 39.1729 29.5125H11.3212C9.89707 29.5125 8.61307 28.846 7.86599 27.7495L0.185173 16.419C-0.398476 15.559 -0.398476 14.441 0.185173 13.5595L7.86599 2.2505C8.61307 1.154 9.92044 0.487503 11.3212 0.487503H39.1963C41.4375 0.487503 43.2818 2.186 43.2818 4.25H43.2585ZM39.7566 4.25C39.7566 3.949 39.4998 3.7125 39.1729 3.7125H11.3212C11.1111 3.7125 10.9243 3.7985 10.8309 3.9705L3.33688 15L10.8309 26.0295C10.9477 26.18 11.1344 26.2875 11.3212 26.2875H39.1963C39.5231 26.2875 39.7799 26.051 39.7799 25.75V4.25H39.7566Z" fill="#4E56CA"/>
</g>
</g>
<defs>
<clipPath id="clip0_10_85">
<rect width="43" height="30" fill="white"/>
</clipPath>
</defs>
</svg>
