<svg width="43" height="46" viewBox="0 0 43 46" fill="none" xmlns="http://www.w3.org/2000/svg">
<path fill-rule="evenodd" clip-rule="evenodd" d="M4 17.28V32.64C4 38.2953 8.5846 42.88 14.24 42.88H29.6C35.2553 42.88 39.84 38.2953 39.84 32.64V17.28C39.84 11.6246 35.2553 7.04 29.6 7.04H14.24C8.5846 7.04 4 11.6246 4 17.28Z" stroke="#4E56CA" stroke-width="3.84" stroke-linecap="round" stroke-linejoin="round"/>
<path d="M25.12 9.6C25.12 10.6604 25.9797 11.52 27.04 11.52C28.1004 11.52 28.96 10.6604 28.96 9.6H25.12ZM28.96 1.92C28.96 0.859622 28.1004 0 27.04 0C25.9797 0 25.12 0.859622 25.12 1.92H28.96ZM14.88 9.6C14.88 10.6604 15.7397 11.52 16.8 11.52C17.8604 11.52 18.72 10.6604 18.72 9.6H14.88ZM18.72 1.92C18.72 0.859622 17.8604 0 16.8 0C15.7397 0 14.88 0.859622 14.88 1.92H18.72ZM29.6 19.2C30.6604 19.2 31.52 18.3403 31.52 17.28C31.52 16.2196 30.6604 15.36 29.6 15.36V19.2ZM14.24 15.36C13.1796 15.36 12.32 16.2196 12.32 17.28C12.32 18.3403 13.1796 19.2 14.24 19.2V15.36ZM29.6 26.88C30.6604 26.88 31.52 26.0203 31.52 24.96C31.52 23.8996 30.6604 23.04 29.6 23.04V26.88ZM14.24 23.04C13.1796 23.04 12.32 23.8996 12.32 24.96C12.32 26.0203 13.1796 26.88 14.24 26.88V23.04ZM21.92 34.56C22.9804 34.56 23.84 33.7003 23.84 32.64C23.84 31.5796 22.9804 30.72 21.92 30.72V34.56ZM14.24 30.72C13.1796 30.72 12.32 31.5796 12.32 32.64C12.32 33.7003 13.1796 34.56 14.24 34.56V30.72ZM28.96 9.6V1.92H25.12V9.6H28.96ZM18.72 9.6V1.92H14.88V9.6H18.72ZM29.6 15.36H14.24V19.2H29.6V15.36ZM29.6 23.04H14.24V26.88H29.6V23.04ZM21.92 30.72H14.24V34.56H21.92V30.72Z" fill="#4E56CA"/>
</svg>
